<?xml version="1.0" standalone="no"?>
<!DOCTYPE svg PUBLIC "-//W3C//DTD SVG 20010904//EN"
 "http://www.w3.org/TR/2001/REC-SVG-20010904/DTD/svg10.dtd">
<svg version="1.0" xmlns="http://www.w3.org/2000/svg"
 width="16.000000pt" height="16.000000pt" viewBox="0 0 16.000000 16.000000"
 preserveAspectRatio="xMidYMid meet">
<metadata>
Created by potrace 1.11, written by Peter Selinger 2001-2013
</metadata>
<g transform="translate(0.000000,16.000000) scale(0.003125,-0.003125)"
fill="#000000" stroke="none">
<path d="M1760 4520 l0 -90 1155 0 1155 0 0 90 0 90 -1155 0 -1155 0 0 -90z"/>
<path d="M1760 4160 l0 -90 1155 0 1155 0 0 90 0 90 -1155 0 -1155 0 0 -90z"/>
<path d="M1760 3810 l0 -90 1155 0 1155 0 0 90 0 90 -1155 0 -1155 0 0 -90z"/>
<path d="M1436 3535 c-51 -18 -102 -69 -120 -119 -12 -33 -86 -679 -86 -749 0
-15 -17 -17 -190 -17 l-190 0 -19 38 c-42 82 -100 114 -233 132 -87 12 -184 4
-272 -21 -54 -15 -119 -83 -145 -154 l-22 -59 11 -560 c6 -309 9 -797 8 -1086
l-3 -525 31 -60 c42 -79 114 -146 187 -174 l58 -21 2135 0 c2358 0 2171 -5
2242 63 53 50 69 93 91 238 35 235 44 385 38 678 -5 258 -15 371 -53 596 -9
52 -35 103 -71 137 -32 31 -108 67 -139 68 -19 0 -22 7 -28 88 -19 253 -127
1343 -137 1377 -15 52 -82 119 -134 134 -22 6 -64 11 -92 11 l-53 0 0 -625 0
-625 -289 0 -290 0 -6 58 c-16 157 -47 216 -139 265 -41 22 -44 22 -616 22
-574 0 -575 0 -616 -22 -47 -25 -91 -73 -110 -120 -8 -17 -17 -70 -20 -117
l-7 -86 -288 0 -289 0 0 625 0 625 -52 0 c-29 -1 -70 -7 -92 -15z m2070 -1002
c42 -30 60 -73 68 -160 l7 -73 -672 0 -672 0 7 77 c7 87 26 127 76 161 l34 22
560 -2 561 -3 31 -22z m-1325 -979 c21 -23 24 -35 24 -105 0 -68 -3 -81 -23
-101 -22 -23 -24 -23 -368 -26 l-345 -3 -29 30 c-28 27 -30 35 -30 104 0 65 3
77 25 101 l24 26 349 0 349 0 24 -26z"/>
<path d="M1760 3270 l0 -90 1155 0 1155 0 0 90 0 90 -1155 0 -1155 0 0 -90z"/>
<path d="M1760 2920 l0 -90 575 0 575 0 0 90 0 90 -575 0 -575 0 0 -90z"/>
</g>
</svg>
